<?xml version="1.0" encoding="utf-8"?>
<!-- Generator: Adobe Illustrator 19.2.0, SVG Export Plug-In . SVG Version: 6.00 Build 0)  -->
<svg version="1.1" id="Layer_1" xmlns="http://www.w3.org/2000/svg" xmlns:xlink="http://www.w3.org/1999/xlink" x="0px" y="0px"
	 viewBox="0 0 106 106" style="enable-background:new 0 0 106 106;" xml:space="preserve">
<style type="text/css">
	.st0{opacity:0.79;fill:#136F5A;}
	.st1{fill:#136E59;}
	.st2{opacity:0.79;fill:#15874E;}
</style>
<polygon class="st0" points="0,77.8 5,82.7 5,72.6 0,67.6 "/>
<g>
	<path class="st1" d="M105,1v104H37.5l-6.2-5.8L31,99h-0.4H16.8L1,83.2V1H105 M106,0H0v83.6L16.3,100h14.2l6.5,6H106V0L106,0z"/>
</g>
<polygon class="st0" points="21.5,101 26.7,101 32.2,106 27,106 "/>
<polygon class="st0" points="0,88.5 0,83.7 17.1,100.3 17.8,101 23.2,106 17.9,106 "/>
<g>
	<polygon class="st2" points="25.4,101 26.7,101 32.2,106 30.9,106 	"/>
	<polygon class="st2" points="1,84.5 1,83.2 17.3,100 16,100 	"/>
</g>
<polygon class="st2" points="3,104 10.4,104 0,94.1 0,101.5 "/>
</svg>
