<svg version="1.1"
  xmlns="http://www.w3.org/2000/svg"
  xmlns:xlink="http://www.w3.org/1999/xlink">

  <symbol id="icon-genetically-bound" viewBox="0 0 26 26">
    <path fill="#fff" d="M16.6 5.8l-.1-.8c-.1-1.8.6-3.6 2-4.7l.1-.1L20 1.6v.2c-1 .8-1.5 1.9-1.4 3.1l.1 1-2.1-.1zM5.8 24.3l.2-.1c1-.8 1.5-1.9 1.4-3.1l-.1-1 2 .2.1.8c.1 1.8-.6 3.6-2 4.7l-.1.1-1.5-1.6z"/>
    <path fill="#fff" d="M7 15.5v-.2c0-2.2.9-4.3 2.4-5.9C11 7.9 13.1 7 15.4 7h.7l5 .4h.3l-2.3-2.3V5c0-.7.1-1.3.5-1.9l.1-.2 3.8 3.8c.2-.2.5-.4.7-.7l.1-.2 1.5 1.4-.1.1c-1.5 1.7-3.3 2-4.7 2-.8 0-1.7-.1-2.6-.2-.9 0-1.8-.1-2.6-.1-2.1 0-3.6.6-4.9 1.8C9.7 12.1 9 13.7 9 15.4v.2l-2-.1zM15.9 8.8h-.4.4z"/>
    <path fill="#fff" d="M2.7 19.5l-.2-.2c-.2.2-.5.4-.7.7l-.1.2-1.4-1.4.1-.1c1.5-1.8 3.4-2 4.8-2 .9 0 1.9.1 2.8.2.9.1 1.7.2 2.6.2.6 0 1.2-.1 1.6-.2.8 0 2-.7 3-1.7 1-1.1 1.7-2.3 1.7-3 .1-.4.2-1 .2-1.6v-.2l2 .2v.2c-.1 4.7-3.8 8.3-8.5 8.3h-.7c-1 0-2-.1-2.9-.2-.7-.1-1.4-.2-2.1-.2h-.2L7 21v.1c0 .7-.1 1.3-.5 1.9l-.1.2-3.7-3.7z"/>
  </symbol>

</svg>
