<svg xmlns="http://www.w3.org/2000/svg" viewBox="0 0 239.2 75.56">
  <defs>
    <linearGradient id="linear-gradient" x1="149.66" x2="111.56" y1="176.34" y2=".89" gradientUnits="userSpaceOnUse">
      <stop offset="0" stop-color="#74272d"/>
      <stop offset="1" stop-color="#c1272d"/>
    </linearGradient>
    <!-- <style>
      .cls-2{fill:#fff}
    </style> -->
  </defs>
  <g>
    <path  d="M239.12 34.28c-.56.09-1.46.15-1.53 0 .42-.09 1.17-.28 1.5-.43-.1-.21.09-.5-.11-.65l-2.51-14.45.1.14c-.16-.27-.43-2.06-.49-2.39.07.05.15.22.24.6.06-1.23-.62-1.89-.27-2.45l-.36-1.36c.13.26.25-.28.34.58-.2-2.53-1-3.95-.86-4.94l.06.2c-.55-2.56-.48-1.45-.74-1.78l-.28-1.61.3-1.28c-.44-.08-.55-1.29-.37-1.24-.44-1.29-.09.25-.42-.49-.01-.83-.21-1.87-.37-2.73-.92.11-2.03.51-2.72.22-.57.34 1.67-.11-.13.37-.61-.42-2.1.46-3.7.49.43-.35 1.94-.47.33-.43-3.35.86-4.75.83-9.4 1.9.24-.22-4.57.7-6.23.69-.34.43-2.47.73-4.01 1.08.02-.23.29-.36 1.11-.6-1.26.14-1.64.43-3.16.78l.32-.33c-1.93.35-3.84 1-6.36 1.25-.07.19.92.29.75.52l-1.35.23c.03-.09.16-.19.51-.29-.22.06-.79.25-1.25.27l1.01-.41c-1.15.1-.56.29-1.47.43-1.35-.35-.01-.13.55-.39-1.03.14-2.28.24-2.72.17.11.1.05.26-.7.42-1.93.35-.7-.12-1.85-.02-.66.39-8.05 1.41-5.84 1.46-5.41.93-12.21 2.33-17.09 2.82-1.47.33-1.62.47-3.8.68 1.47-.43-.54-.06 1.51-.39-1.95.25-2.41.17-4.44.8.66-.37-1.51-.06-2.41.17l1.38-.06c-1.03.22-1.93.35-2.85.49l.44-.41c-4.02.29-7.01 1.92-10.14 1.77-1.01.41 2.17-.21 1.29.22-4.52.14-5.41.42-9.24 1.44.35.06.72.32-1.21.76-1.83.27-2.32-.1-1.19-.4.43-.09.65-.09.64-.04 3.02-.79-3.46.49-2.49.02-1.36.35-.55.29.47.18-2.36.24-3.65.63-6.07.93.39 0 .77.07.39.14-3.55.47-1.51.49-3.89.96-1.39.06.41-.51-1.97.06-1.49.13-.36-.26.2-.45-2.15.61-4.12.56-5.37.74l1.14-.29c-.68.18-1.25.27-1.82.37l.7.12c-.68.08-1.26.18-1.26.08-.67.27.6.3-.75.75-.92.04-2.73.61-3.09.35 2.86-.39-.37-.26 2.03-.72-.07.04-2.3.46-1.44.16-2.76.19-1.19.57-4 1.05.33-.24-.71-.22-1.16-.1 1.14-.19.59.2-.42.51-1.83.18-1.94.44-2.89.59l1.09-.12c-2.61 1.15-7.59.62-12.57 1.65.7.12.81.04-.77.55l3.74-.82-2.36.76c1.14-.19 2.38-.57 3.07-.64-1.12.39-1.01.31-.43.41-1.14-.45-4.76 1.78-4.94.23-2.75.21-4.76 1.13-8.3 1.6l1.15-.1c-.93.41-2.95.71-4.45.5-1.05.25-3.25 1.04-4.44.89-2.86.39-3.14 1.12-5.89 1.53.79-.35-.48-.28 1.32-.75-2.71.43-4.01 1.04-6.6 1.53-.19.12-1.48.39-.62.44-5.51.41-11.42 1.61-16.54 2.53.11-.08-.01-.1.33-.14-2.52.25-1.43.82-4.3 1.12-1.5-.06 1.48-.43.55-.39-.5-.57-3.41.68-5.38.64l.46-.12c-1.5.04-3.51.86-5.9 1.23-1.27.22-4.68 1.28-6.92 1.64.67-.37 1.02-.31.54-.49-1.02.21.37.36-1.67.78-2.31.06-3.37-.03-.5-.47-3.82.19-5.51 1.11-9.55 1.87l.35.06c-1.67.69-1.5.04-3.18.62l-.59-.3c-1.13.29-3.96 1.08-6.01 1.51 1.12-.49 3.5-1.06 4.96-1.49-1.14.2-3.86.7-4.42 1 .45-.12 1.01-.31 1.48-.33C-4.6 41.69.32 35.97 2.48 56.32c.3-1.76.25 1.36.81.97.23 1.07.29 1.49.27 1.6v-.23c-.01.1.2 3.43.21 3.6-.04.81-.31-1.01-.43-.89.37 2.39-.08 1.04.03 2.65.16-.36.45.78.61 2.15l-.05-1.96c.9 3.28 0 2.97.9 6.27l-.37-1.03c1.75 7.3-.39 6.46 5.51 5.55 4.13-.64 9.08-2.11 12.33-2.37l-.29.2c.74-.17 1.87-.74 2.35-.38.4-.12 2-.61 3.03-.7l-.84.32c14.03-2.56 25.2-4.61 39.95-6.81-1.34-.26 5.01-1.45 3.11-.84.42.04 4.34.22 4.71-1.05 10.28-1.28 15.49-2.43 24.61-3.8l-.68.32c4.88-2.15 10.03-1.46 15.2-3.08-.05.07-.13.21-.68.32 1.63-.27 6.35-.81 5.66-1.28.11.37 3.58-.58 5.42-1.07l-.24.33c1.52-.63 1.55-.73 3.74-1.21.53-.06.5.14-.21.19 1.77-.16 1.31-.5 3.45-.72l-.76.31c2.34-.46 4.63-1.49 6.3-1.05.21-.19 1.16-.57 2.23-.68.16.07-.22.19-.4.26 3.2-.28 4.58-1.35 6.88-1.08-7.63 1.22-1.35.38-3.62 1.25 1.59-.42 4.27-1.53 6.23-1.49l-.19.06c2.14-.47 3.42-.32 5.92-.87-.13-.26 1.13-.44-.08-.46.3-.02-.95.2-1.21.29a.21.21 0 0 0 .06-.04c-.63.11-1.45.26-2.38.43 2.02-.8 6.41-1.56 8.18-1.13 3.62-.47 7.37-2.11 9.93-2.13-.47.14-1.04.23-1.29.35 1.64-.42 4.92-.91 5.25-1.34 2.12-.2-1.12.54 1.75-.02l-.37.18c5.77-.4 9.05-2.53 15.46-2.87-.44.03-.66.05-.76 0 12.72-2.02 24.15-4.26 36.74-6.26l-.52-.12c1.36-.2 4.26-.86 4.08-.59-.07.04.86-.56 1.02-.12l3.27-.84c2.59-.33-.3.69 3.47.07 1.39-.3 3.9-1.14 3.35-1.16Zm-87.78 15.93s.05-.03.07-.05c-.25.33-1.25.33-1.18.27.3-.06.65-.13 1.11-.23Zm84.37-36.11c0 .09 0 .15-.01.19l-.14-.82c.05.2.1.4.15.63Z" style="fill:url(#linear-gradient)"/>
    <path fill="#fff" d="M78.56 53.59c-.72.93-1.88 1.53-3.48 1.81l-3.64.63-.36-2.1 3.92-.68c.68-.12 1.2-.42 1.55-.9.35-.48.48-1 .38-1.57l-.5-2.87c-.1-.55-.32-.97-.66-1.26-.34-.29-.8-.39-1.37-.29l-.55.1c-1.36.24-2.51.02-3.44-.64-.93-.66-1.53-1.76-1.79-3.28l-.18-1.05c-.27-1.56-.05-2.81.67-3.74.72-.93 1.88-1.53 3.48-1.81l3.67-.64.36 2.1-3.95.69c-.68.12-1.2.42-1.55.89-.35.48-.48 1-.38 1.57l.36 2.1c.1.57.37 1.01.8 1.32.43.31.94.42 1.53.32l.55-.1c1.31-.23 2.39-.03 3.25.6.86.63 1.42 1.71 1.68 3.23l.32 1.82c.27 1.56.05 2.81-.67 3.74ZM93.02 51.08c-.72.93-1.88 1.53-3.48 1.81l-.94.16c-1.6.28-2.9.1-3.89-.53-.99-.63-1.62-1.73-1.89-3.29l-1.73-9.93c-.27-1.56-.05-2.81.67-3.74.72-.93 1.88-1.53 3.48-1.81l.94-.16c1.6-.28 2.9-.1 3.89.53.99.63 1.62 1.73 1.89 3.29l1.73 9.93c.27 1.56.05 2.81-.67 3.74Zm-4.43-15.13c-.49-.33-1.08-.44-1.76-.32l-1.49.26c-.68.12-1.2.42-1.55.89s-.48 1-.38 1.57l1.91 10.98c.1.57.4 1.02.89 1.35.49.33 1.08.44 1.76.32l1.49-.26c.68-.12 1.2-.42 1.55-.9.35-.48.48-1 .38-1.57l-1.91-10.98c-.1-.57-.4-1.02-.89-1.35ZM98.92 51.26l-3.36-19.31 2.4-.42 2.99 17.21 6.15-1.07.36 2.1-8.55 1.49ZM119.06 46.74c-.61.79-1.75 1.33-3.43 1.62l-5.41.94-3.36-19.31 5.08-.88c1.65-.29 2.96-.17 3.93.35.96.52 1.58 1.55 1.84 3.08l1.85 10.65c.28 1.58.11 2.77-.5 3.56Zm-4.59-15.39c-.43-.29-.95-.39-1.56-.28l-3.28.57 2.64 15.17 3.26-.57c.7-.12 1.19-.37 1.46-.75.28-.38.35-.92.23-1.62l-1.94-11.17c-.11-.61-.37-1.06-.8-1.35ZM141.02 42.74c-.72.93-1.88 1.53-3.48 1.81l-.94.16c-1.6.28-2.9.1-3.89-.53-.99-.63-1.62-1.73-1.89-3.29l-1.73-9.93c-.27-1.56-.05-2.81.67-3.74.72-.93 1.88-1.53 3.48-1.81l.94-.16c1.6-.28 2.9-.1 3.89.53.99.63 1.62 1.73 1.89 3.29l1.73 9.93c.27 1.56.05 2.81-.67 3.74Zm-4.43-15.13c-.49-.33-1.08-.44-1.76-.32l-1.49.26c-.68.12-1.2.42-1.55.89-.35.48-.48 1-.38 1.57l1.91 10.98c.1.57.39 1.02.89 1.35.49.33 1.08.44 1.76.32l1.49-.26c.68-.12 1.2-.42 1.55-.9.35-.48.48-1 .38-1.57l-1.91-10.98c-.1-.57-.4-1.02-.89-1.35ZM155.64 40.19c-.72.93-1.88 1.53-3.48 1.81l-.41.07c-1.6.28-2.9.1-3.89-.53-.99-.63-1.62-1.73-1.89-3.29l-2.54-14.62 2.4-.42 2.63 15.15c.1.57.39 1.02.89 1.35.49.33 1.08.44 1.76.32l.97-.17c.68-.12 1.2-.42 1.55-.9.35-.48.48-1 .38-1.57l-2.63-15.14 2.4-.42 2.54 14.62c.27 1.56.05 2.81-.67 3.74ZM163.4 22.32l2.99 17.21-2.4.42L161 22.74l-4.25.74-.36-2.1 10.9-1.89.36 2.1-4.25.74Z" class="cls-2"/>
  </g>
</svg>
